<mxfile host="app.diagrams.net" agent="Mozilla/5.0 (Windows NT 10.0; Win64; x64) AppleWebKit/537.36 (KHTML, like Gecko) Chrome/135.0.0.0 Safari/537.36" version="26.2.14">
  <diagram name="Page-1" id="dP6VLaK_XomjjRDdLSGu">
    <mxGraphModel dx="1818" dy="788" grid="1" gridSize="10" guides="1" tooltips="1" connect="1" arrows="1" fold="1" page="1" pageScale="1" pageWidth="850" pageHeight="1100" math="0" shadow="0">
      <root>
        <mxCell id="0" />
        <mxCell id="1" parent="0" />
        <mxCell id="TzvhqFeoA95H17DifkYi-1" value="Χρήστης&lt;div&gt;&lt;br&gt;&lt;/div&gt;" style="shape=umlActor;verticalLabelPosition=bottom;verticalAlign=top;html=1;outlineConnect=0;" vertex="1" parent="1">
          <mxGeometry x="70" y="180" width="50" height="90" as="geometry" />
        </mxCell>
        <mxCell id="TzvhqFeoA95H17DifkYi-3" value="Οθόνη κίνησης στο κέντρο της πόλης" style="shape=umlBoundary;whiteSpace=wrap;html=1;" vertex="1" parent="1">
          <mxGeometry x="390" y="20" width="115" height="90" as="geometry" />
        </mxCell>
        <mxCell id="TzvhqFeoA95H17DifkYi-4" value="" style="html=1;verticalAlign=bottom;endArrow=block;curved=0;rounded=0;entryX=0;entryY=0.5;entryDx=0;entryDy=0;entryPerimeter=0;" edge="1" parent="1" target="TzvhqFeoA95H17DifkYi-3">
          <mxGeometry width="80" relative="1" as="geometry">
            <mxPoint x="110" y="190" as="sourcePoint" />
            <mxPoint x="655" y="320" as="targetPoint" />
          </mxGeometry>
        </mxCell>
        <mxCell id="TzvhqFeoA95H17DifkYi-5" value="&lt;font style=&quot;font-size: 13px;&quot;&gt;Επιλέγει κίνηση σε όλους τους δρόμους&amp;nbsp;&lt;/font&gt;" style="html=1;verticalAlign=bottom;endArrow=block;curved=0;rounded=0;exitX=0.5;exitY=0;exitDx=0;exitDy=0;exitPerimeter=0;entryX=0;entryY=0.444;entryDx=0;entryDy=0;entryPerimeter=0;" edge="1" parent="1" source="TzvhqFeoA95H17DifkYi-1" target="TzvhqFeoA95H17DifkYi-20">
          <mxGeometry x="0.2187" y="15" width="80" relative="1" as="geometry">
            <mxPoint x="155" y="150" as="sourcePoint" />
            <mxPoint x="380" y="215" as="targetPoint" />
            <mxPoint as="offset" />
          </mxGeometry>
        </mxCell>
        <mxCell id="TzvhqFeoA95H17DifkYi-6" value="Εμφανίζει τις επιλογές" style="ellipse;shape=umlControl;whiteSpace=wrap;html=1;" vertex="1" parent="1">
          <mxGeometry x="676" y="40" width="86" height="90" as="geometry" />
        </mxCell>
        <mxCell id="TzvhqFeoA95H17DifkYi-10" value="Βάση CityZen" style="ellipse;shape=umlEntity;whiteSpace=wrap;html=1;fillColor=default;" vertex="1" parent="1">
          <mxGeometry x="1055" y="150" width="100" height="90" as="geometry" />
        </mxCell>
        <mxCell id="TzvhqFeoA95H17DifkYi-11" value="" style="endArrow=classic;html=1;rounded=0;exitX=0.015;exitY=0.537;exitDx=0;exitDy=0;exitPerimeter=0;entryX=0.891;entryY=0.195;entryDx=0;entryDy=0;entryPerimeter=0;" edge="1" parent="1" source="TzvhqFeoA95H17DifkYi-6" target="TzvhqFeoA95H17DifkYi-20">
          <mxGeometry width="50" height="50" relative="1" as="geometry">
            <mxPoint x="530" y="240" as="sourcePoint" />
            <mxPoint x="630" y="300" as="targetPoint" />
          </mxGeometry>
        </mxCell>
        <mxCell id="TzvhqFeoA95H17DifkYi-12" value="" style="endArrow=classic;html=1;rounded=0;exitX=0.99;exitY=0.314;exitDx=0;exitDy=0;exitPerimeter=0;" edge="1" parent="1" source="TzvhqFeoA95H17DifkYi-20" target="TzvhqFeoA95H17DifkYi-36">
          <mxGeometry width="50" height="50" relative="1" as="geometry">
            <mxPoint x="629" y="172" as="sourcePoint" />
            <mxPoint x="536" y="259" as="targetPoint" />
          </mxGeometry>
        </mxCell>
        <mxCell id="TzvhqFeoA95H17DifkYi-15" value="" style="endArrow=none;html=1;rounded=0;entryX=0;entryY=0;entryDx=0;entryDy=0;exitX=0.892;exitY=0.346;exitDx=0;exitDy=0;exitPerimeter=0;" edge="1" parent="1" source="TzvhqFeoA95H17DifkYi-6" target="TzvhqFeoA95H17DifkYi-10">
          <mxGeometry width="50" height="50" relative="1" as="geometry">
            <mxPoint x="500" y="124" as="sourcePoint" />
            <mxPoint x="580" y="190" as="targetPoint" />
          </mxGeometry>
        </mxCell>
        <mxCell id="TzvhqFeoA95H17DifkYi-16" value="" style="endArrow=none;html=1;rounded=0;exitX=0.959;exitY=0.721;exitDx=0;exitDy=0;exitPerimeter=0;entryX=0.077;entryY=0.78;entryDx=0;entryDy=0;entryPerimeter=0;" edge="1" parent="1" source="TzvhqFeoA95H17DifkYi-21" target="TzvhqFeoA95H17DifkYi-10">
          <mxGeometry width="50" height="50" relative="1" as="geometry">
            <mxPoint x="534.96" y="260" as="sourcePoint" />
            <mxPoint x="1060" y="220" as="targetPoint" />
          </mxGeometry>
        </mxCell>
        <mxCell id="TzvhqFeoA95H17DifkYi-17" value="" style="html=1;verticalAlign=bottom;endArrow=block;curved=0;rounded=0;fillColor=#e51400;strokeColor=#3632B2;entryX=0.13;entryY=0.852;entryDx=0;entryDy=0;entryPerimeter=0;exitX=0.907;exitY=0.817;exitDx=0;exitDy=0;exitPerimeter=0;" edge="1" parent="1" source="TzvhqFeoA95H17DifkYi-20" target="TzvhqFeoA95H17DifkYi-36">
          <mxGeometry x="0.1711" y="25" width="80" relative="1" as="geometry">
            <mxPoint x="230" y="330" as="sourcePoint" />
            <mxPoint x="370" y="440" as="targetPoint" />
            <mxPoint as="offset" />
          </mxGeometry>
        </mxCell>
        <mxCell id="TzvhqFeoA95H17DifkYi-18" value="Οθόνη επιλεγμένου είδους κίνησης" style="shape=umlBoundary;whiteSpace=wrap;html=1;fillColor=default;" vertex="1" parent="1">
          <mxGeometry x="400" y="415" width="115" height="90" as="geometry" />
        </mxCell>
        <mxCell id="TzvhqFeoA95H17DifkYi-19" value="Οθόνη κίνησης&amp;nbsp;&lt;span style=&quot;font-size: 11px; text-wrap-mode: nowrap; background-color: rgb(255, 255, 255);&quot;&gt;σε&amp;nbsp;&lt;/span&gt;&lt;div&gt;&lt;span style=&quot;font-size: 11px; text-wrap-mode: nowrap; background-color: rgb(255, 255, 255);&quot;&gt;όλους τους δρόμους&lt;/span&gt;&lt;/div&gt;" style="shape=umlBoundary;whiteSpace=wrap;html=1;" vertex="1" parent="1">
          <mxGeometry x="400" y="530" width="120" height="100" as="geometry" />
        </mxCell>
        <mxCell id="TzvhqFeoA95H17DifkYi-20" value="Οθόνη κίνησης στο κέντρο της πόλης + επιλογές" style="shape=umlBoundary;whiteSpace=wrap;html=1;" vertex="1" parent="1">
          <mxGeometry x="390" y="170" width="115" height="90" as="geometry" />
        </mxCell>
        <mxCell id="TzvhqFeoA95H17DifkYi-21" value="Εμφανίζει την οθόνη που επιλέχθηκε" style="ellipse;shape=umlControl;whiteSpace=wrap;html=1;" vertex="1" parent="1">
          <mxGeometry x="674" y="590" width="86" height="90" as="geometry" />
        </mxCell>
        <mxCell id="TzvhqFeoA95H17DifkYi-22" value="" style="endArrow=classic;html=1;rounded=0;exitX=0.331;exitY=0.968;exitDx=0;exitDy=0;exitPerimeter=0;entryX=0.256;entryY=0.195;entryDx=0;entryDy=0;entryPerimeter=0;" edge="1" parent="1" source="TzvhqFeoA95H17DifkYi-36" target="TzvhqFeoA95H17DifkYi-21">
          <mxGeometry width="50" height="50" relative="1" as="geometry">
            <mxPoint x="535" y="300" as="sourcePoint" />
            <mxPoint x="775" y="480" as="targetPoint" />
          </mxGeometry>
        </mxCell>
        <mxCell id="TzvhqFeoA95H17DifkYi-23" value="" style="endArrow=classic;html=1;rounded=0;entryX=0.996;entryY=0.399;entryDx=0;entryDy=0;entryPerimeter=0;exitX=0.012;exitY=0.644;exitDx=0;exitDy=0;exitPerimeter=0;" edge="1" parent="1" source="TzvhqFeoA95H17DifkYi-21" target="TzvhqFeoA95H17DifkYi-19">
          <mxGeometry width="50" height="50" relative="1" as="geometry">
            <mxPoint x="669" y="212" as="sourcePoint" />
            <mxPoint x="542" y="290" as="targetPoint" />
          </mxGeometry>
        </mxCell>
        <mxCell id="TzvhqFeoA95H17DifkYi-28" value="&lt;font style=&quot;font-size: 13px;&quot;&gt;Επιλέγει &#39;Επέλεξε δρόμο΄&lt;/font&gt;" style="html=1;verticalAlign=bottom;endArrow=block;curved=0;rounded=0;fillColor=#e51400;strokeColor=#3632B2;exitX=1;exitY=1;exitDx=0;exitDy=0;exitPerimeter=0;" edge="1" parent="1" source="TzvhqFeoA95H17DifkYi-1" target="TzvhqFeoA95H17DifkYi-20">
          <mxGeometry x="0.2247" y="-28" width="80" relative="1" as="geometry">
            <mxPoint x="120" y="210" as="sourcePoint" />
            <mxPoint x="350" y="223" as="targetPoint" />
            <mxPoint x="-1" as="offset" />
          </mxGeometry>
        </mxCell>
        <mxCell id="TzvhqFeoA95H17DifkYi-30" value="Οθόνη κίνησης&amp;nbsp; στην οδό" style="shape=umlBoundary;whiteSpace=wrap;html=1;fillColor=default;" vertex="1" parent="1">
          <mxGeometry x="400" y="680" width="120" height="100" as="geometry" />
        </mxCell>
        <mxCell id="TzvhqFeoA95H17DifkYi-31" value="Εμφανίζει λίστα με διαθέσιμους δρόμους" style="ellipse;shape=umlControl;whiteSpace=wrap;html=1;fillColor=default;" vertex="1" parent="1">
          <mxGeometry x="720" y="325" width="94" height="90" as="geometry" />
        </mxCell>
        <mxCell id="TzvhqFeoA95H17DifkYi-36" value="καταχώρηση επιλογών χρήστη" style="ellipse;shape=umlControl;whiteSpace=wrap;html=1;" vertex="1" parent="1">
          <mxGeometry x="674" y="155" width="90" height="90" as="geometry" />
        </mxCell>
        <mxCell id="TzvhqFeoA95H17DifkYi-37" value="" style="endArrow=classic;html=1;rounded=0;exitX=0.993;exitY=0.554;exitDx=0;exitDy=0;exitPerimeter=0;" edge="1" parent="1" source="TzvhqFeoA95H17DifkYi-3">
          <mxGeometry width="50" height="50" relative="1" as="geometry">
            <mxPoint x="510" y="60" as="sourcePoint" />
            <mxPoint x="680" y="80" as="targetPoint" />
          </mxGeometry>
        </mxCell>
        <mxCell id="TzvhqFeoA95H17DifkYi-40" value="&lt;font style=&quot;font-size: 13px;&quot;&gt;Επιλέγει &quot;είδος κίνησης&quot;&lt;/font&gt;" style="html=1;verticalAlign=bottom;endArrow=block;curved=0;rounded=0;fillColor=#e51400;strokeColor=#33FF33;exitX=0.5;exitY=0.5;exitDx=0;exitDy=0;exitPerimeter=0;" edge="1" parent="1" source="TzvhqFeoA95H17DifkYi-1" target="TzvhqFeoA95H17DifkYi-20">
          <mxGeometry x="-0.2583" y="-8" width="80" relative="1" as="geometry">
            <mxPoint x="120" y="210" as="sourcePoint" />
            <mxPoint x="350" y="260" as="targetPoint" />
            <mxPoint as="offset" />
          </mxGeometry>
        </mxCell>
        <mxCell id="TzvhqFeoA95H17DifkYi-41" value="" style="endArrow=classic;html=1;rounded=0;exitX=0.983;exitY=0.574;exitDx=0;exitDy=0;exitPerimeter=0;entryX=0.061;entryY=0.714;entryDx=0;entryDy=0;entryPerimeter=0;strokeColor=#33FF33;" edge="1" parent="1" source="TzvhqFeoA95H17DifkYi-20" target="TzvhqFeoA95H17DifkYi-36">
          <mxGeometry width="50" height="50" relative="1" as="geometry">
            <mxPoint x="514" y="208" as="sourcePoint" />
            <mxPoint x="684" y="210" as="targetPoint" />
          </mxGeometry>
        </mxCell>
        <mxCell id="TzvhqFeoA95H17DifkYi-42" value="" style="endArrow=none;html=1;rounded=0;entryX=0;entryY=0.5;entryDx=0;entryDy=0;exitX=0.956;exitY=0.444;exitDx=0;exitDy=0;exitPerimeter=0;" edge="1" parent="1" source="TzvhqFeoA95H17DifkYi-36" target="TzvhqFeoA95H17DifkYi-10">
          <mxGeometry width="50" height="50" relative="1" as="geometry">
            <mxPoint x="763" y="81" as="sourcePoint" />
            <mxPoint x="1080" y="173" as="targetPoint" />
          </mxGeometry>
        </mxCell>
        <mxCell id="TzvhqFeoA95H17DifkYi-43" value="" style="endArrow=classic;html=1;rounded=0;exitX=0.559;exitY=0.984;exitDx=0;exitDy=0;exitPerimeter=0;strokeColor=#3632B2;entryX=0.289;entryY=0.188;entryDx=0;entryDy=0;entryPerimeter=0;" edge="1" parent="1" source="TzvhqFeoA95H17DifkYi-36" target="TzvhqFeoA95H17DifkYi-31">
          <mxGeometry width="50" height="50" relative="1" as="geometry">
            <mxPoint x="513" y="232" as="sourcePoint" />
            <mxPoint x="689" y="229" as="targetPoint" />
          </mxGeometry>
        </mxCell>
        <mxCell id="TzvhqFeoA95H17DifkYi-44" value="" style="html=1;verticalAlign=bottom;endArrow=block;curved=0;rounded=0;fillColor=#e51400;strokeColor=#3632B2;entryX=0.981;entryY=0.428;entryDx=0;entryDy=0;entryPerimeter=0;exitX=0.111;exitY=0.812;exitDx=0;exitDy=0;exitPerimeter=0;" edge="1" parent="1" source="TzvhqFeoA95H17DifkYi-21" target="TzvhqFeoA95H17DifkYi-30">
          <mxGeometry x="0.1711" y="25" width="80" relative="1" as="geometry">
            <mxPoint x="690" y="530" as="sourcePoint" />
            <mxPoint x="590" y="625" as="targetPoint" />
            <mxPoint as="offset" />
          </mxGeometry>
        </mxCell>
        <mxCell id="TzvhqFeoA95H17DifkYi-45" value="" style="endArrow=classic;html=1;rounded=0;strokeColor=#33FF33;entryX=0.076;entryY=0.424;entryDx=0;entryDy=0;entryPerimeter=0;exitX=0.829;exitY=0.884;exitDx=0;exitDy=0;exitPerimeter=0;" edge="1" parent="1" source="TzvhqFeoA95H17DifkYi-36" target="TzvhqFeoA95H17DifkYi-46">
          <mxGeometry width="50" height="50" relative="1" as="geometry">
            <mxPoint x="750" y="240" as="sourcePoint" />
            <mxPoint x="840" y="270" as="targetPoint" />
          </mxGeometry>
        </mxCell>
        <mxCell id="TzvhqFeoA95H17DifkYi-46" value="Εμφανίζει λίστα με διαθέσιμα είδη κίνησης" style="ellipse;shape=umlControl;whiteSpace=wrap;html=1;fillColor=default;" vertex="1" parent="1">
          <mxGeometry x="786" y="230" width="94" height="90" as="geometry" />
        </mxCell>
        <mxCell id="TzvhqFeoA95H17DifkYi-47" value="" style="endArrow=classic;html=1;rounded=0;exitX=0.34;exitY=0.986;exitDx=0;exitDy=0;exitPerimeter=0;strokeColor=#33FF33;entryX=0.324;entryY=0.142;entryDx=0;entryDy=0;entryPerimeter=0;" edge="1" parent="1" source="TzvhqFeoA95H17DifkYi-53" target="TzvhqFeoA95H17DifkYi-21">
          <mxGeometry width="50" height="50" relative="1" as="geometry">
            <mxPoint x="727" y="253" as="sourcePoint" />
            <mxPoint x="600" y="315" as="targetPoint" />
          </mxGeometry>
        </mxCell>
        <mxCell id="TzvhqFeoA95H17DifkYi-48" value="Οθόνη εμφάνισης λίστας" style="shape=umlBoundary;whiteSpace=wrap;html=1;fillColor=default;" vertex="1" parent="1">
          <mxGeometry x="390" y="290" width="115" height="90" as="geometry" />
        </mxCell>
        <mxCell id="TzvhqFeoA95H17DifkYi-49" value="" style="endArrow=classic;html=1;rounded=0;exitX=-0.01;exitY=0.556;exitDx=0;exitDy=0;exitPerimeter=0;strokeColor=#3632B2;entryX=0.952;entryY=0.718;entryDx=0;entryDy=0;entryPerimeter=0;" edge="1" parent="1" source="TzvhqFeoA95H17DifkYi-31" target="TzvhqFeoA95H17DifkYi-48">
          <mxGeometry width="50" height="50" relative="1" as="geometry">
            <mxPoint x="726" y="258" as="sourcePoint" />
            <mxPoint x="697" y="357" as="targetPoint" />
          </mxGeometry>
        </mxCell>
        <mxCell id="TzvhqFeoA95H17DifkYi-50" value="" style="endArrow=classic;html=1;rounded=0;exitX=0.001;exitY=0.587;exitDx=0;exitDy=0;exitPerimeter=0;strokeColor=#33FF33;entryX=0.973;entryY=0.325;entryDx=0;entryDy=0;entryPerimeter=0;" edge="1" parent="1" source="TzvhqFeoA95H17DifkYi-46" target="TzvhqFeoA95H17DifkYi-48">
          <mxGeometry width="50" height="50" relative="1" as="geometry">
            <mxPoint x="727" y="253" as="sourcePoint" />
            <mxPoint x="850" y="303" as="targetPoint" />
          </mxGeometry>
        </mxCell>
        <mxCell id="TzvhqFeoA95H17DifkYi-51" value="" style="endArrow=none;html=1;rounded=0;exitX=0.871;exitY=0.234;exitDx=0;exitDy=0;exitPerimeter=0;entryX=0.018;entryY=0.65;entryDx=0;entryDy=0;entryPerimeter=0;" edge="1" parent="1" source="TzvhqFeoA95H17DifkYi-46" target="TzvhqFeoA95H17DifkYi-10">
          <mxGeometry width="50" height="50" relative="1" as="geometry">
            <mxPoint x="770" y="205" as="sourcePoint" />
            <mxPoint x="1050" y="205" as="targetPoint" />
          </mxGeometry>
        </mxCell>
        <mxCell id="TzvhqFeoA95H17DifkYi-52" value="" style="endArrow=none;html=1;rounded=0;entryX=0.06;entryY=0.743;entryDx=0;entryDy=0;exitX=0.984;exitY=0.482;exitDx=0;exitDy=0;exitPerimeter=0;entryPerimeter=0;" edge="1" parent="1" source="TzvhqFeoA95H17DifkYi-31" target="TzvhqFeoA95H17DifkYi-10">
          <mxGeometry width="50" height="50" relative="1" as="geometry">
            <mxPoint x="912" y="301" as="sourcePoint" />
            <mxPoint x="1075" y="215" as="targetPoint" />
          </mxGeometry>
        </mxCell>
        <mxCell id="TzvhqFeoA95H17DifkYi-53" value="καταχώρηση επιλογών χρήστη στην λίστα" style="ellipse;shape=umlControl;whiteSpace=wrap;html=1;" vertex="1" parent="1">
          <mxGeometry x="720" y="430" width="90" height="90" as="geometry" />
        </mxCell>
        <mxCell id="TzvhqFeoA95H17DifkYi-54" value="" style="endArrow=classic;html=1;rounded=0;exitX=0.871;exitY=0.888;exitDx=0;exitDy=0;exitPerimeter=0;strokeColor=#33FF33;entryX=0.063;entryY=0.32;entryDx=0;entryDy=0;entryPerimeter=0;" edge="1" parent="1" source="TzvhqFeoA95H17DifkYi-48" target="TzvhqFeoA95H17DifkYi-53">
          <mxGeometry width="50" height="50" relative="1" as="geometry">
            <mxPoint x="796" y="293" as="sourcePoint" />
            <mxPoint x="725" y="458" as="targetPoint" />
          </mxGeometry>
        </mxCell>
        <mxCell id="TzvhqFeoA95H17DifkYi-55" value="" style="endArrow=classic;html=1;rounded=0;strokeColor=#3632B2;entryX=0.026;entryY=0.502;entryDx=0;entryDy=0;entryPerimeter=0;exitX=0.809;exitY=0.966;exitDx=0;exitDy=0;exitPerimeter=0;" edge="1" parent="1" source="TzvhqFeoA95H17DifkYi-48" target="TzvhqFeoA95H17DifkYi-53">
          <mxGeometry width="50" height="50" relative="1" as="geometry">
            <mxPoint x="480" y="400" as="sourcePoint" />
            <mxPoint x="509" y="365" as="targetPoint" />
          </mxGeometry>
        </mxCell>
        <mxCell id="TzvhqFeoA95H17DifkYi-56" value="" style="endArrow=classic;html=1;rounded=0;strokeColor=#3632B2;entryX=0.776;entryY=0.182;entryDx=0;entryDy=0;entryPerimeter=0;exitX=0.627;exitY=0.946;exitDx=0;exitDy=0;exitPerimeter=0;" edge="1" parent="1" source="TzvhqFeoA95H17DifkYi-53" target="TzvhqFeoA95H17DifkYi-21">
          <mxGeometry width="50" height="50" relative="1" as="geometry">
            <mxPoint x="740" y="530" as="sourcePoint" />
            <mxPoint x="713" y="357" as="targetPoint" />
          </mxGeometry>
        </mxCell>
        <mxCell id="TzvhqFeoA95H17DifkYi-57" value="" style="endArrow=classic;html=1;rounded=0;exitX=0.133;exitY=0.312;exitDx=0;exitDy=0;exitPerimeter=0;strokeColor=#33FF33;entryX=0.978;entryY=0.714;entryDx=0;entryDy=0;entryPerimeter=0;" edge="1" parent="1" source="TzvhqFeoA95H17DifkYi-21" target="TzvhqFeoA95H17DifkYi-18">
          <mxGeometry width="50" height="50" relative="1" as="geometry">
            <mxPoint x="717" y="539" as="sourcePoint" />
            <mxPoint x="712" y="613" as="targetPoint" />
          </mxGeometry>
        </mxCell>
        <mxCell id="TzvhqFeoA95H17DifkYi-59" value="&lt;font style=&quot;font-size: 13px;&quot;&gt;Επιλέγει από την λίστα&lt;/font&gt;" style="html=1;verticalAlign=bottom;endArrow=block;curved=0;rounded=0;fillColor=#e51400;strokeColor=#33FF33;exitX=0.5;exitY=0.5;exitDx=0;exitDy=0;exitPerimeter=0;" edge="1" parent="1" source="TzvhqFeoA95H17DifkYi-1">
          <mxGeometry x="0.4117" y="-5" width="80" relative="1" as="geometry">
            <mxPoint x="105" y="235" as="sourcePoint" />
            <mxPoint x="390" y="340" as="targetPoint" />
            <mxPoint y="-1" as="offset" />
          </mxGeometry>
        </mxCell>
        <mxCell id="TzvhqFeoA95H17DifkYi-60" value="&lt;span style=&quot;font-size: 13px;&quot;&gt;Επιλέγει από την λίστα&lt;/span&gt;" style="html=1;verticalAlign=bottom;endArrow=block;curved=0;rounded=0;fillColor=#e51400;strokeColor=#3632B2;exitX=0;exitY=1;exitDx=0;exitDy=0;exitPerimeter=0;entryX=0.001;entryY=0.678;entryDx=0;entryDy=0;entryPerimeter=0;" edge="1" parent="1" source="TzvhqFeoA95H17DifkYi-1" target="TzvhqFeoA95H17DifkYi-48">
          <mxGeometry x="0.4545" y="-11" width="80" relative="1" as="geometry">
            <mxPoint x="130" y="280" as="sourcePoint" />
            <mxPoint x="400" y="235" as="targetPoint" />
            <mxPoint as="offset" />
          </mxGeometry>
        </mxCell>
      </root>
    </mxGraphModel>
  </diagram>
</mxfile>
